<?xml version="1.0" standalone="no"?>
<!DOCTYPE svg PUBLIC "-//W3C//DTD SVG 20010904//EN"
 "http://www.w3.org/TR/2001/REC-SVG-20010904/DTD/svg10.dtd">
<svg version="1.0" xmlns="http://www.w3.org/2000/svg"
 width="700.000000pt" height="700.000000pt" viewBox="0 0 700.000000 700.000000"
 preserveAspectRatio="xMidYMid meet">
<metadata>
Created by potrace 1.11, written by Peter Selinger 2001-2013
</metadata>
<g transform="translate(0.000000,700.000000) scale(0.100000,-0.100000)"
fill="#000000" stroke="none">
<path d="M6316 6979 c-128 -27 -221 -61 -391 -145 -307 -150 -638 -400 -924
-696 -60 -63 -96 -89 -195 -144 -182 -101 -293 -178 -376 -263 -75 -76 -166
-203 -212 -296 -56 -111 -105 -296 -107 -406 l-1 -35 -52 -3 c-78 -3 -241 -44
-343 -87 -208 -88 -442 -293 -541 -474 -11 -19 -27 -46 -36 -60 -47 -71 -109
-273 -123 -405 -4 -33 -8 -61 -10 -63 -2 -2 -30 -6 -62 -9 -170 -14 -408 -109
-559 -222 -246 -184 -437 -501 -460 -766 -9 -107 -4 -101 -91 -113 -121 -16
-136 -19 -220 -47 -212 -71 -427 -224 -551 -393 -55 -76 -73 -108 -136 -242
-31 -67 -60 -112 -97 -151 -96 -100 -123 -132 -237 -273 -472 -587 -673 -1119
-531 -1399 66 -129 259 -236 489 -272 81 -12 372 -13 430 -1 14 2 41 7 60 10
234 35 543 154 745 287 44 29 85 58 91 64 6 5 26 21 44 35 19 14 61 50 94 82
163 151 4446 4442 4496 4503 126 154 241 352 324 557 35 88 98 299 111 373 7
40 10 58 20 104 2 13 7 56 11 95 46 487 -93 810 -371 865 -76 14 -190 11 -289
-10z"/>
</g>
</svg>
